<svg width="32" height="32" viewBox="0 0 32 32" fill="none" xmlns="http://www.w3.org/2000/svg">
  <rect width="32" height="32" rx="8" fill="url(#paint0_linear_linkify_favicon)"/>
  <g clipPath="url(#clip0_linkify_favicon)">
    <!-- Chain link representing connection/linking -->
    <path d="M12.5 8.5C10.567 8.5 9 10.067 9 12C9 13.933 10.567 15.5 12.5 15.5H15.5V13.5H12.5C11.672 13.5 11 12.828 11 12C11 11.172 11.672 10.5 12.5 10.5H15.5V8.5H12.5Z" fill="white"/>
    <path d="M19.5 16.5C21.433 16.5 23 18.067 23 20C23 21.933 21.433 23.5 19.5 23.5H16.5V21.5H19.5C20.328 21.5 21 20.828 21 20C21 19.172 20.328 18.5 19.5 18.5H16.5V16.5H19.5Z" fill="white"/>
    <path d="M13 16H19C19.552 16 20 15.552 20 15C20 14.448 19.552 14 19 14H13C12.448 14 12 14.448 12 15C12 15.552 12.448 16 13 16Z" fill="white"/>
    <!-- AI spark/star element -->
    <path d="M25 7L24 9L22 8L24 7L25 7Z" fill="white" opacity="0.8"/>
    <path d="M7 25L8 23L10 24L8 25L7 25Z" fill="white" opacity="0.8"/>
  </g>
  <defs>
    <linearGradient id="paint0_linear_linkify_favicon" x1="0" y1="0" x2="32" y2="32" gradientUnits="userSpaceOnUse">
      <stop stopColor="#0ea5e9"/>
      <stop offset="1" stopColor="#0284c7"/>
    </linearGradient>
    <clipPath id="clip0_linkify_favicon">
      <rect width="32" height="32" rx="8" fill="white"/>
    </clipPath>
  </defs>
</svg>